<svg width="136" height="98" viewBox="0 0 136 98" fill="none" xmlns="http://www.w3.org/2000/svg">
<g clip-path="url(#clip0)">
<path d="M128.278 90.5607C128.278 90.0579 128.477 89.5758 128.833 89.2203C129.188 88.8648 129.67 88.665 130.173 88.665C130.675 88.665 131.157 88.8648 131.512 89.2203C131.868 89.5758 132.067 90.0579 132.067 90.5607C132.073 91.0624 131.881 91.5462 131.534 91.9076C131.186 92.269 130.71 92.4789 130.208 92.4921C129.953 92.499 129.699 92.4537 129.461 92.3591C129.224 92.2645 129.008 92.1225 128.828 91.9417C128.647 91.761 128.505 91.5453 128.411 91.3079C128.316 91.0704 128.271 90.8162 128.278 90.5607ZM130.137 92.1344C130.451 92.1487 130.761 92.0687 131.029 91.9046C131.297 91.7406 131.51 91.5001 131.64 91.2141C131.77 90.9281 131.812 90.6097 131.759 90.2999C131.707 89.99 131.563 89.703 131.346 89.4757C131.129 89.2484 130.849 89.0912 130.542 89.0245C130.235 88.9577 129.916 88.9844 129.624 89.1012C129.332 89.2179 129.082 89.4193 128.906 89.6794C128.73 89.9395 128.636 90.2464 128.635 90.5607C128.623 90.7644 128.654 90.9683 128.724 91.1598C128.794 91.3514 128.903 91.5264 129.044 91.674C129.185 91.8215 129.355 91.9386 129.543 92.0178C129.731 92.097 129.933 92.1367 130.137 92.1344ZM129.779 91.7052H129.422V89.4877H130.208C130.709 89.4877 130.995 89.7023 130.995 90.1315C130.995 90.5607 130.78 90.7037 130.423 90.7037L131.066 91.6337H130.709L130.137 90.7037H129.779V91.7052ZM130.137 90.4176C130.423 90.4176 130.637 90.4176 130.637 90.0599C130.637 89.7023 130.423 89.7738 130.137 89.7738H129.708V90.4176H130.137Z" fill="#005DAA"/>
<path d="M64.5679 98C54.2713 98 0.715088 98 0.715088 97.5708C0.715088 97.1416 54.2713 97.1416 64.5679 97.1416C74.8644 97.1416 125.775 97.1416 125.775 97.5708C125.775 98 74.9359 97.9285 64.5679 98Z" fill="#00A0AF"/>
<path d="M65.4258 70.5315C55.7728 70.5315 0.786499 70.5315 0.786499 70.1023C0.786499 69.6731 55.7728 69.7446 65.4258 69.6731C75.0788 69.6016 125.775 69.6731 125.775 70.1023C125.775 70.5315 75.0788 70.5315 65.4258 70.5315Z" fill="#00A0AF"/>
<path d="M11.0831 92.5634C6.00634 92.5634 2.14514 89.3444 2.14514 84.2656C2.14514 78.9722 5.64882 75.5386 11.5836 75.5386C16.1599 75.5386 20.4501 78.543 20.4501 83.8364C20.5931 89.2013 17.0894 92.5634 11.0831 92.5634ZM11.1546 79.1867C8.65198 79.1867 7.29341 81.1181 7.29341 83.8364C7.29341 87.27 8.79498 88.9152 11.6551 88.9152C14.0148 88.9152 15.5163 87.1984 15.5163 84.2656C15.4448 80.6174 14.0148 79.1867 11.1546 79.1867Z" fill="#005DAA"/>
<path d="M32.4627 86.7692C31.647 86.782 30.8323 86.71 30.0315 86.5546V92.2057H27.7434C27.3707 92.2311 26.9968 92.1763 26.647 92.0451C26.2971 91.9139 25.9794 91.7092 25.7152 91.4449C25.4511 91.1806 25.2465 90.8628 25.1153 90.5128C24.9842 90.1629 24.9294 89.7888 24.9548 89.4159V76.397C26.7885 75.9908 28.6552 75.7513 30.5321 75.6816H32.6057C36.4669 75.6816 39.47 77.5415 39.47 80.9751C39.327 84.4802 36.2523 86.7692 32.4627 86.7692ZM32.0336 79.2583H31.0326C30.6716 79.2753 30.3128 79.3232 29.96 79.4013V83.0495C30.5924 83.1995 31.2408 83.2716 31.8906 83.2641C33.5352 83.2641 34.1787 82.6203 34.1787 81.4758C34.1787 79.6159 33.3922 79.2583 32.0336 79.2583Z" fill="#005DAA"/>
<path d="M55.1294 79.6162H52.4838V92.1344H50.2671C48.7656 92.1344 47.407 91.4906 47.407 89.7739V79.6162H42.1157V78.0425C42.1157 77.041 43.1168 75.8965 44.9759 75.8965H57.9895V77.4702C57.918 78.5432 56.631 79.6162 55.1294 79.6162Z" fill="#005DAA"/>
<path d="M63.8528 92.206C63.5308 92.2056 63.2123 92.1394 62.9168 92.0116C62.6212 91.8838 62.3549 91.6969 62.134 91.4626C61.9131 91.2282 61.7424 90.9512 61.6322 90.6486C61.522 90.3459 61.4747 90.0239 61.4932 89.7024V75.9681H64.3533C64.9266 75.9589 65.482 76.1681 65.9069 76.5533C66.3317 76.9385 66.5943 77.4708 66.6414 78.0425V92.2775L63.8528 92.206Z" fill="#005DAA"/>
<path d="M79.2976 86.7692C78.482 86.782 77.6673 86.71 76.8665 86.5546V92.2057H74.5784C74.2056 92.2311 73.8318 92.1763 73.4819 92.0451C73.1321 91.9139 72.8144 91.7092 72.5502 91.4449C72.286 91.1806 72.0815 90.8628 71.9503 90.5128C71.8191 90.1629 71.7644 89.7888 71.7897 89.4159V76.397C73.6235 75.9908 75.4902 75.7513 77.367 75.6816H79.4406C83.3018 75.6816 86.305 77.5415 86.305 80.9751C86.162 84.4802 83.1588 86.7692 79.2976 86.7692ZM78.9401 79.2583H77.939C77.5781 79.2753 77.2193 79.3232 76.8665 79.4013V83.0495C77.4989 83.1995 78.1472 83.2716 78.7971 83.2641C80.4417 83.2641 81.0852 82.6203 81.0852 81.4758C81.0852 79.6159 80.2272 79.2583 78.9401 79.2583Z" fill="#005DAA"/>
<path d="M102.679 92.3488C100.963 92.3488 99.8908 91.705 99.3187 90.632L97.9602 87.9853C97.2451 86.5546 96.7446 86.34 95.529 86.197C95.3145 86.197 95.0285 86.1254 94.7425 86.1254V92.2773H92.7404C90.7383 92.2773 89.5942 91.2043 89.5942 89.7021V76.397C91.4186 75.9392 93.2907 75.6991 95.1715 75.6816H97.2451C101.249 75.6816 104.038 77.613 104.038 80.5459C104.027 81.5395 103.693 82.5027 103.087 83.2898C102.481 84.077 101.635 84.6455 100.677 84.9094C101.535 85.267 102.036 85.8393 102.751 87.1269L104.181 89.7736C104.517 90.4969 104.95 91.1708 105.468 91.7765V91.9196C104.565 92.2005 103.625 92.3451 102.679 92.3488ZM95.7435 79.2583C95.4067 79.2805 95.0721 79.3284 94.7425 79.4013V82.978C95.4319 83.0401 96.1241 83.064 96.8161 83.0495C97.0801 83.074 97.3464 83.0447 97.5989 82.9636C97.8513 82.8824 98.0848 82.751 98.2852 82.5773C98.4856 82.4036 98.6488 82.1911 98.7649 81.9526C98.8811 81.7141 98.9479 81.4546 98.9612 81.1897C98.9612 80.0451 98.3177 79.3298 96.8161 79.3298L95.7435 79.2583Z" fill="#005DAA"/>
<path d="M116.837 92.5634C111.76 92.5634 107.899 89.3444 107.899 84.2656C107.899 78.9722 111.403 75.5386 117.338 75.5386C121.914 75.5386 126.204 78.543 126.204 83.8364C126.204 89.1298 122.843 92.5634 116.837 92.5634ZM116.909 79.1867C114.406 79.1867 113.047 81.1181 113.047 83.8364C113.047 87.27 114.549 88.9152 117.409 88.9152C119.769 88.9152 121.27 87.1984 121.27 84.2656C121.127 80.6174 119.697 79.1867 116.909 79.1867Z" fill="#005DAA"/>
<path d="M130.28 27.0396C129.73 27.0396 129.202 26.8211 128.814 26.432C128.425 26.043 128.206 25.5153 128.206 24.9652C128.208 24.6966 128.263 24.4311 128.369 24.1842C128.475 23.9373 128.629 23.714 128.822 23.5275C129.015 23.3409 129.244 23.1948 129.494 23.0977C129.744 23.0007 130.011 22.9546 130.28 22.9622C130.819 22.9583 131.338 23.1658 131.725 23.5403C132.113 23.9147 132.338 24.4263 132.353 24.9652C132.359 25.2392 132.31 25.5116 132.207 25.7659C132.105 26.0202 131.953 26.2512 131.759 26.4451C131.565 26.6389 131.334 26.7915 131.08 26.8936C130.826 26.9958 130.554 27.0455 130.28 27.0396V26.6819C130.506 26.6848 130.73 26.6424 130.94 26.5571C131.149 26.4719 131.34 26.3455 131.5 26.1855C131.66 26.0255 131.786 25.8351 131.871 25.6255C131.956 25.4159 131.999 25.1914 131.996 24.9652C131.99 24.5116 131.808 24.0781 131.487 23.7574C131.166 23.4366 130.733 23.2539 130.28 23.2484C130.054 23.2455 129.829 23.2879 129.62 23.3732C129.41 23.4584 129.22 23.5848 129.06 23.7448C128.9 23.9048 128.774 24.0952 128.688 24.3048C128.603 24.5144 128.561 24.7389 128.564 24.9652C128.569 25.4188 128.752 25.8522 129.072 26.173C129.393 26.4937 129.826 26.6764 130.28 26.6819V27.0396ZM129.851 26.1812H129.493V23.8922H130.423C130.923 23.8922 131.209 24.0352 131.209 24.4644C131.219 24.5418 131.21 24.6202 131.185 24.6939C131.159 24.7675 131.117 24.8344 131.062 24.8894C131.007 24.9445 130.94 24.9864 130.867 25.0119C130.793 25.0374 130.715 25.0459 130.637 25.0367L131.281 26.1097H130.852L130.28 25.0367H129.851V24.679H130.423C130.709 24.679 130.78 24.679 130.78 24.3929C130.78 24.1068 130.637 24.1068 130.351 24.1068H129.779V26.1812H129.851Z" fill="#005DAA"/>
<path d="M93.4554 35.2658C93.4554 35.2658 93.4554 34.4074 93.3839 33.5491C93.3839 33.5491 94.242 34.5505 94.957 35.2658L119.84 59.8731C120.143 60.1354 120.495 60.334 120.876 60.4569C121.257 60.5798 121.658 60.6245 122.057 60.5885C122.546 60.5923 123.031 60.4987 123.484 60.3131C123.937 60.1275 124.349 59.8537 124.695 59.5075C125.041 59.1613 125.314 58.7497 125.5 58.2967C125.685 57.8437 125.779 57.3583 125.775 56.8688V25.752C125.775 24.8982 125.436 24.0795 124.833 23.4758C124.229 22.8721 123.411 22.533 122.557 22.533C121.704 22.533 120.886 22.8721 120.282 23.4758C119.679 24.0795 119.34 24.8982 119.34 25.752V47.7126C119.34 47.7126 119.34 48.571 119.411 49.6439C119.411 49.6439 118.482 48.4994 117.767 47.7126L93.1694 23.4629C92.635 22.9889 91.9748 22.6798 91.2686 22.5732C90.5624 22.4665 89.8404 22.5668 89.19 22.8619C88.5395 23.157 87.9885 23.6343 87.6034 24.236C87.2183 24.8378 87.0157 25.5382 87.0201 26.2527V57.298C87.0201 58.1517 87.3591 58.9704 87.9625 59.5741C88.566 60.1778 89.3844 60.5169 90.2378 60.5169C91.0911 60.5169 91.9096 60.1778 92.513 59.5741C93.1164 58.9704 93.4554 58.1517 93.4554 57.298V35.2658Z" fill="#FEC34E"/>
<path d="M9.93906 35.2658C9.93906 35.2658 9.93906 34.4074 9.86756 33.5491C9.86756 33.5491 10.7256 34.5505 11.4406 35.2658L36.3239 59.8731C36.6263 60.1354 36.9785 60.334 37.3593 60.4569C37.7402 60.5798 38.142 60.6245 38.5405 60.5885C39.0299 60.5923 39.5151 60.4987 39.9679 60.3131C40.4207 60.1275 40.8322 59.8537 41.1782 59.5075C41.5242 59.1613 41.7979 58.7497 41.9835 58.2967C42.169 57.8437 42.2625 57.3583 42.2587 56.8688V25.752C42.2587 24.8982 41.9197 24.0795 41.3163 23.4758C40.7129 22.8721 39.8944 22.533 39.0411 22.533C38.1877 22.533 37.3693 22.8721 36.7658 23.4758C36.1624 24.0795 35.8234 24.8982 35.8234 25.752V47.7126C35.8234 47.7126 35.8234 48.571 35.8949 49.6439C35.8949 49.6439 34.9653 48.4994 34.2503 47.7126L9.65305 23.4629C9.11867 22.9889 8.45847 22.6798 7.75226 22.5732C7.04605 22.4665 6.32408 22.5668 5.67363 22.8619C5.02318 23.157 4.4721 23.6343 4.08702 24.236C3.70194 24.8378 3.49935 25.5382 3.50373 26.2527V57.298C3.50373 58.1517 3.84273 58.9704 4.44616 59.5741C5.04959 60.1778 5.86802 60.5169 6.7214 60.5169C7.57477 60.5169 8.3932 60.1778 8.99663 59.5741C9.60006 58.9704 9.93906 58.1517 9.93906 57.298V35.2658Z" fill="#FEC34E"/>
<path d="M54.6289 53.3637H73.7919L76.08 58.371C76.3668 59.0254 76.8366 59.5829 77.4329 59.9764C78.0291 60.3698 78.7264 60.5824 79.4406 60.5885C80.4067 60.5847 81.332 60.1991 82.0151 59.5158C82.6982 58.8324 83.0836 57.9067 83.0873 56.9403C83.0615 56.4288 82.9652 55.9233 82.8013 55.4381L68.3576 24.8221C67.9954 24.1512 67.4586 23.5908 66.804 23.2003C66.1495 22.8097 65.4015 22.6035 64.6394 22.6035C63.8772 22.6035 63.1293 22.8097 62.4747 23.2003C61.8202 23.5908 61.2834 24.1512 60.9212 24.8221L46.3344 55.9388C46.1306 56.3621 46.0325 56.8285 46.0484 57.298C46.0465 57.7212 46.1285 58.1407 46.2895 58.5321C46.4505 58.9235 46.6875 59.2791 46.9866 59.5784C47.2858 59.8776 47.6413 60.1147 48.0325 60.2758C48.4237 60.4369 48.843 60.5188 49.2661 60.5169C49.8255 60.5093 50.374 60.3612 50.8612 60.0863C51.3485 59.8113 51.7589 59.4182 52.0547 58.9432L54.6289 53.3637L57.346 47.498L63.7813 33.6921C64.0693 33.1825 64.2631 32.6252 64.3534 32.0469C64.4851 32.614 64.6769 33.1656 64.9254 33.6921L71.1462 47.498H57.346L54.6289 53.3637Z" fill="#FEC34E"/>
<path d="M119.84 21.7459C119.314 21.7449 118.793 21.8479 118.307 22.0489C117.82 22.2498 117.379 22.5449 117.007 22.917C116.635 23.2892 116.34 23.7312 116.139 24.2176C115.938 24.7041 115.835 25.2254 115.836 25.7517V47.4262C115.759 47.3353 115.687 47.2398 115.621 47.14L91.0957 22.8904C90.2752 22.1429 89.2022 21.734 88.0925 21.7459C87.5002 21.743 86.9131 21.8576 86.3653 22.0831C85.8175 22.3086 85.3198 22.6404 84.9009 23.0595C84.482 23.4785 84.1503 23.9764 83.9249 24.5245C83.6996 25.0725 83.585 25.6598 83.5878 26.2524V57.2977C83.5878 58.3601 84.0097 59.379 84.7606 60.1302C85.5116 60.8815 86.53 61.3035 87.592 61.3035C88.654 61.3035 89.6725 60.8815 90.4234 60.1302C91.1744 59.379 91.5962 58.3601 91.5962 57.2977V35.6232L91.7392 35.7663L116.623 60.3736C117.372 61.0268 118.347 61.3606 119.34 61.3035C119.932 61.3064 120.519 61.1917 121.067 60.9663C121.615 60.7408 122.112 60.409 122.531 59.9899C122.95 59.5709 123.282 59.0729 123.507 58.5249C123.733 57.9769 123.847 57.3896 123.844 56.797V25.7517C123.845 25.2254 123.742 24.7041 123.542 24.2176C123.341 23.7312 123.046 23.2892 122.674 22.917C122.302 22.5449 121.86 22.2498 121.374 22.0489C120.887 21.8479 120.366 21.7449 119.84 21.7459Z" fill="white"/>
<path d="M33.0346 60.3736C33.4026 60.7021 33.8326 60.9536 34.2992 61.1133C34.7659 61.273 35.2598 61.3377 35.7518 61.3035C36.3441 61.3064 36.9312 61.1917 37.479 60.9663C38.0268 60.7408 38.5246 60.409 38.9434 59.9899C39.3623 59.5709 39.694 59.0729 39.9194 58.5249C40.1448 57.9768 40.2593 57.3896 40.2565 56.7969V25.7517C40.2565 24.6893 39.8346 23.6704 39.0837 22.9191C38.3328 22.1679 37.3143 21.7459 36.2523 21.7459C35.1903 21.7459 34.1718 22.1679 33.4209 22.9191C32.67 23.6704 32.2481 24.6893 32.2481 25.7517V47.4261C32.1707 47.3353 32.099 47.2398 32.0336 47.14L7.50782 22.8904C6.68733 22.1429 5.61433 21.734 4.50466 21.7459C3.9123 21.743 3.32524 21.8576 2.77742 22.0831C2.2296 22.3086 1.73187 22.6404 1.313 23.0595C0.89413 23.4785 0.562423 23.9764 0.337045 24.5245C0.111667 25.0725 -0.00291163 25.6598 -7.05e-05 26.2524V57.2977C-7.05e-05 58.3601 0.4218 59.379 1.17273 60.1302C1.92367 60.8815 2.94215 61.3035 4.00414 61.3035C5.06612 61.3035 6.0846 60.8815 6.83554 60.1302C7.58647 59.379 8.00834 58.3601 8.00834 57.2977V35.6232L8.15135 35.7663L33.0346 60.3736Z" fill="white"/>
<path d="M46.549 61.3034C47.2403 61.3117 47.9215 61.1375 48.5241 60.7985C49.1267 60.4594 49.6292 59.9674 49.9812 59.372V59.3005C49.9812 59.3005 52.0548 54.8655 52.4123 54.0786H70.5742C70.9317 54.7939 72.6478 58.6567 72.6478 58.6567C73.0621 59.5854 73.7818 60.344 74.6872 60.8064C75.5925 61.2688 76.6289 61.4069 77.6237 61.1978C78.6185 60.9888 79.5117 60.4451 80.1545 59.6573C80.7974 58.8696 81.1511 57.8853 81.1568 56.8684C81.148 56.2554 81.0268 55.6493 80.7992 55.0801L66.3555 24.464C65.9315 23.6548 65.2943 22.977 64.5129 22.5041C63.7314 22.0312 62.8356 21.7812 61.9223 21.7812C61.009 21.7812 60.1131 22.0312 59.3317 22.5041C58.5502 22.977 57.913 23.6548 57.489 24.464C57.489 24.5355 42.8308 55.6523 42.8308 55.6523C42.6029 56.1713 42.4814 56.7308 42.4733 57.2976C42.4993 58.3642 42.9392 59.3788 43.7 60.1265C44.4607 60.8742 45.4825 61.2963 46.549 61.3034ZM61.6363 34.264C62.3513 35.7662 65.9265 43.7779 67.2135 46.7107H55.8445C56.7025 44.8509 61.4217 34.7647 61.6363 34.264Z" fill="white"/>
<path d="M90.8096 35.2656C90.8096 35.2656 90.8096 34.4072 90.7381 33.5488C90.7381 33.5488 91.5961 34.5502 92.3112 35.2656L117.194 59.8729C117.497 60.1351 117.849 60.3337 118.23 60.4566C118.611 60.5795 119.012 60.6243 119.411 60.5882C119.9 60.592 120.386 60.4984 120.838 60.3128C121.291 60.1272 121.703 59.8534 122.049 59.5072C122.395 59.161 122.668 58.7495 122.854 58.2965C123.039 57.8434 123.133 57.358 123.129 56.8685V25.7517C123.129 24.898 122.79 24.0792 122.187 23.4755C121.583 22.8719 120.765 22.5327 119.912 22.5327C119.058 22.5327 118.24 22.8719 117.636 23.4755C117.033 24.0792 116.694 24.898 116.694 25.7517V47.7123C116.694 47.7123 116.694 48.5707 116.765 49.6437C116.765 49.6437 115.836 48.4991 115.121 47.7123L90.5951 23.5342C90.0607 23.0601 89.4005 22.7511 88.6943 22.6444C87.9881 22.5378 87.2661 22.638 86.6156 22.9331C85.9652 23.2282 85.4141 23.7055 85.029 24.3073C84.644 24.909 84.4414 25.6095 84.4457 26.324V57.3692C84.4457 58.2229 84.7848 59.0417 85.3882 59.6454C85.9916 60.2491 86.81 60.5882 87.6634 60.5882C88.5168 60.5882 89.3352 60.2491 89.9386 59.6454C90.5421 59.0417 90.8811 58.2229 90.8811 57.3692L90.8096 35.2656Z" fill="url(#paint0_linear)"/>
<path d="M7.22178 35.2658C7.22178 35.2658 7.22178 34.4074 7.15027 33.5491C7.15027 33.5491 8.00832 34.5505 8.72336 35.2658L33.6066 59.8731C33.909 60.1354 34.2612 60.334 34.642 60.4569C35.0229 60.5798 35.4247 60.6245 35.8232 60.5885C36.3126 60.5923 36.7978 60.4987 37.2506 60.3131C37.7035 60.1275 38.1149 59.8537 38.4609 59.5075C38.8069 59.1613 39.0807 58.7497 39.2662 58.2967C39.4517 57.8437 39.5452 57.3583 39.5414 56.8688V25.752C39.5414 24.8982 39.2024 24.0795 38.599 23.4758C37.9956 22.8721 37.1772 22.533 36.3238 22.533C35.4704 22.533 34.652 22.8721 34.0485 23.4758C33.4451 24.0795 33.1061 24.8982 33.1061 25.752V47.7126C33.1061 47.7126 33.1061 48.571 33.1776 49.6439C33.1776 49.6439 32.2481 48.4994 31.533 47.7126L6.93576 23.4629C6.40138 22.9889 5.74118 22.6798 5.03498 22.5732C4.32877 22.4665 3.6068 22.5668 2.95635 22.8619C2.30589 23.157 1.75482 23.6343 1.36973 24.236C0.984654 24.8378 0.78206 25.5382 0.786447 26.2527V57.298C0.786447 58.1517 1.12545 58.9704 1.72888 59.5741C2.33231 60.1778 3.15073 60.5169 4.00411 60.5169C4.85749 60.5169 5.67592 60.1778 6.27935 59.5741C6.88277 58.9704 7.22178 58.1517 7.22178 57.298V35.2658Z" fill="url(#paint1_linear)"/>
<path d="M51.9117 53.3637H71.0747L73.3628 58.371C73.6496 59.0254 74.1194 59.5829 74.7157 59.9764C75.312 60.3698 76.0092 60.5824 76.7235 60.5885C77.6895 60.5847 78.6148 60.1991 79.2979 59.5158C79.981 58.8324 80.3664 57.9067 80.3702 56.9403C80.3443 56.4288 80.248 55.9233 80.0842 55.4381L65.6404 24.8221C65.2782 24.1512 64.7414 23.5908 64.0869 23.2003C63.4323 22.8097 62.6844 22.6035 61.9222 22.6035C61.1601 22.6035 60.4121 22.8097 59.7576 23.2003C59.103 23.5908 58.5662 24.1512 58.204 24.8221L43.6173 55.9388C43.4135 56.3621 43.3153 56.8285 43.3313 57.298C43.3294 57.7212 43.4113 58.1407 43.5723 58.5321C43.7334 58.9235 43.9703 59.2791 44.2695 59.5784C44.5686 59.8776 44.9241 60.1147 45.3153 60.2758C45.7066 60.4369 46.1258 60.5188 46.5489 60.5169C47.1083 60.5093 47.6568 60.3612 48.1441 60.0863C48.6313 59.8113 49.0417 59.4182 49.3376 58.9432L51.9117 53.3637L54.6288 47.498L61.0642 33.6921C61.3127 33.1656 61.5044 32.614 61.6362 32.0469C61.768 32.614 61.9597 33.1656 62.2082 33.6921L68.4291 47.498H54.6288L51.9117 53.3637Z" fill="#006091"/>
<path d="M75.7225 0.929684C75.7225 0.739967 75.6471 0.55802 75.5131 0.42387C75.379 0.28972 75.1971 0.214355 75.0074 0.214355H73.9349C73.7452 0.214355 73.5634 0.28972 73.4293 0.42387C73.2952 0.55802 73.2198 0.739967 73.2198 0.929684V12.2319C73.2198 12.4216 73.2952 12.6035 73.4293 12.7377C73.5634 12.8718 73.7452 12.9472 73.9349 12.9472H75.0074C75.1971 12.9472 75.379 12.8718 75.5131 12.7377C75.6471 12.6035 75.7225 12.4216 75.7225 12.2319V0.929684Z" fill="#005DAA"/>
<path d="M77.0811 1.21606V1.71679C77.0893 1.82788 77.1372 1.93231 77.2159 2.01108C77.2946 2.08985 77.399 2.13772 77.5101 2.14599H84.9465C85.1171 2.14599 85.2808 2.07816 85.4015 1.95742C85.5222 1.83669 85.59 1.67294 85.59 1.50219V0.643796C85.59 0.47305 85.5222 0.309298 85.4015 0.188563C85.2808 0.0678283 85.1171 0 84.9465 0C84.9465 0 77.7246 0.715329 77.5101 0.715329C77.3919 0.736685 77.2847 0.798151 77.2065 0.889365C77.1284 0.980579 77.0841 1.09596 77.0811 1.21606Z" fill="#005DAA"/>
<path d="M71.0746 12.9472C70.6776 12.957 70.2826 12.886 69.9139 12.7385C69.5451 12.591 69.2101 12.3701 68.9292 12.0891C68.6484 11.8081 68.4275 11.473 68.2801 11.1041C68.1326 10.7351 68.0616 10.34 68.0715 9.94282V5.43626H67.5709C67.5047 5.43824 67.4387 5.42664 67.3771 5.40217C67.3154 5.37771 67.2595 5.3409 67.2126 5.294C67.1657 5.2471 67.1289 5.19111 67.1045 5.12946C67.08 5.06782 67.0684 5.00182 67.0704 4.93553V4.2202C67.0684 4.1539 67.08 4.0879 67.1045 4.02626C67.1289 3.96461 67.1657 3.90862 67.2126 3.86172C67.2595 3.81482 67.3154 3.77801 67.3771 3.75355C67.4387 3.72908 67.5047 3.71749 67.5709 3.71947H68.0715V0.929686C68.0651 0.834112 68.0793 0.738289 68.113 0.648635C68.1467 0.558981 68.1992 0.477564 68.2669 0.409835C68.3346 0.342106 68.4159 0.289628 68.5056 0.255916C68.5952 0.222204 68.691 0.208035 68.7865 0.214357H69.859C70.0487 0.214357 70.2306 0.289722 70.3647 0.423872C70.4988 0.558022 70.5741 0.739969 70.5741 0.929686V3.71947H72.2187C72.2849 3.71749 72.3509 3.72908 72.4125 3.75355C72.4742 3.77801 72.5301 3.81482 72.577 3.86172C72.6239 3.90862 72.6607 3.96461 72.6851 4.02626C72.7096 4.0879 72.7212 4.1539 72.7192 4.2202V4.93553C72.7212 5.00182 72.7096 5.06782 72.6851 5.12946C72.6607 5.19111 72.6239 5.2471 72.577 5.294C72.5301 5.3409 72.4742 5.37771 72.4125 5.40217C72.3509 5.42664 72.2849 5.43824 72.2187 5.43626H70.5741V9.58516C70.5614 9.76692 70.5878 9.94929 70.6516 10.12C70.7153 10.2906 70.815 10.4456 70.9438 10.5745C71.0725 10.7033 71.2275 10.803 71.3981 10.8668C71.5687 10.9306 71.751 10.957 71.9327 10.9443H72.0757C72.1511 10.9433 72.2259 10.9575 72.2957 10.9859C72.3655 11.0143 72.429 11.0564 72.4823 11.1098C72.5356 11.1631 72.5777 11.2266 72.6061 11.2964C72.6345 11.3663 72.6487 11.4411 72.6477 11.5165V12.3034C72.6487 12.3788 72.6345 12.4537 72.6061 12.5235C72.5777 12.5934 72.5356 12.6569 72.4823 12.7102C72.429 12.7635 72.3655 12.8056 72.2957 12.8341C72.2259 12.8625 72.1511 12.8766 72.0757 12.8757H71.0746V12.9472Z" fill="#005DAA"/>
<path d="M53.6993 5.29337C54.222 5.28871 54.7284 5.47511 55.1233 5.81757C55.5183 6.16004 55.7747 6.63499 55.8444 7.15323H51.5542C51.6239 6.63499 51.8803 6.16004 52.2753 5.81757C52.6703 5.47511 53.1766 5.28871 53.6993 5.29337L53.7708 3.29046C53.1454 3.27999 52.4529 3.46943 51.8748 3.70845C51.2967 3.94747 50.7738 4.30251 50.3382 4.75165C49.9026 5.2008 49.5638 5.73451 49.3425 6.31981C49.1212 6.90512 49.0222 7.5296 49.0516 8.15469C49.0516 10.8014 50.8392 13.0905 53.7708 13.0905C55.7729 13.0905 57.7035 12.0175 58.061 10.3007C58.0756 10.2344 58.0757 10.1657 58.0613 10.0993C58.0469 10.033 58.0183 9.97049 57.9776 9.91617C57.9369 9.86185 57.8849 9.81696 57.8253 9.78456C57.7657 9.75215 57.6997 9.733 57.632 9.72841H56.2019C56.0898 9.72135 55.9779 9.74411 55.8774 9.79436C55.7769 9.84462 55.6915 9.92058 55.6299 10.0145C55.3649 10.3864 54.9914 10.667 54.5605 10.8178C54.1297 10.9686 53.6627 10.9822 53.2238 10.8568C52.7849 10.7313 52.3957 10.473 52.1095 10.1172C51.8233 9.76144 51.6543 9.32576 51.6257 8.87001H57.632C57.7381 8.88128 57.8453 8.86867 57.9458 8.83311C58.0464 8.79755 58.1377 8.73994 58.2131 8.6645C58.2885 8.58906 58.3461 8.4977 58.3817 8.39711C58.4172 8.29652 58.4298 8.18925 58.4185 8.08315C58.4185 5.65104 56.9885 3.29046 53.7708 3.29046L53.6993 5.29337Z" fill="#005DAA"/>
<path d="M81.1566 5.29337C81.6792 5.28871 82.1856 5.47511 82.5806 5.81757C82.9756 6.16004 83.232 6.63499 83.3017 7.15323H79.0115C79.0623 6.62711 79.3133 6.14065 79.7125 5.79448C80.1118 5.44831 80.6288 5.2689 81.1566 5.29337L81.2281 3.29046C80.6026 3.27999 79.9102 3.46943 79.3321 3.70845C78.754 3.94747 78.231 4.30251 77.7955 4.75165C77.3599 5.2008 77.021 5.73451 76.7997 6.31981C76.5784 6.90512 76.4794 7.5296 76.5088 8.15469C76.5088 10.8014 78.2964 13.0905 81.2281 13.0905C83.2302 13.0905 85.1608 12.0175 85.5183 10.3007C85.5329 10.2344 85.5329 10.1657 85.5185 10.0993C85.5041 10.033 85.4756 9.97049 85.4349 9.91617C85.3942 9.86185 85.3422 9.81696 85.2826 9.78456C85.2229 9.75215 85.157 9.733 85.0893 9.72841H83.6592C83.5482 9.72841 83.4387 9.75426 83.3394 9.80393C83.2401 9.85359 83.1538 9.9257 83.0872 10.0145C82.8222 10.3864 82.4486 10.667 82.0178 10.8178C81.5869 10.9686 81.12 10.9822 80.6811 10.8568C80.2422 10.7313 79.8529 10.473 79.5668 10.1172C79.2806 9.76144 79.1116 9.32576 79.083 8.87001H85.0893C85.1953 8.88128 85.3026 8.86867 85.4031 8.83311C85.5037 8.79755 85.595 8.73994 85.6704 8.6645C85.7458 8.58906 85.8034 8.4977 85.8389 8.39711C85.8745 8.29652 85.8871 8.18925 85.8758 8.08315C85.8758 5.65104 84.4457 3.29046 81.2281 3.29046L81.1566 5.29337Z" fill="#005DAA"/>
<path d="M65.9978 0.286326H46.4773C46.2693 0.288193 46.0703 0.371693 45.9232 0.518856C45.7761 0.666018 45.6927 0.865077 45.6908 1.07319L45.7623 8.7272C45.7623 8.7272 41.5436 1.14472 41.3291 0.715523C41.1961 0.493813 41.0072 0.310999 40.7813 0.185439C40.5554 0.0598787 40.3004 -0.00400781 40.042 0.000194729H38.4689C38.2609 0.00206131 38.0619 0.0855618 37.9148 0.232724C37.7677 0.379887 37.6842 0.578945 37.6824 0.787056V12.0177C37.6842 12.2258 37.7677 12.4249 37.9148 12.572C38.0619 12.7192 38.2609 12.8027 38.4689 12.8046H39.47C39.678 12.8027 39.877 12.7192 40.0241 12.572C40.1712 12.4249 40.2546 12.2258 40.2565 12.0177L40.185 4.1491C40.185 4.1491 44.4037 11.8031 44.6182 12.0892C44.7392 12.3214 44.9257 12.5129 45.1545 12.6401C45.3833 12.7673 45.6443 12.8244 45.9053 12.8046H47.4069C47.6149 12.8027 47.8139 12.7192 47.961 12.572C48.1081 12.4249 48.1915 12.2258 48.1934 12.0177V2.21771H65.9978C66.0732 2.21867 66.148 2.20453 66.2179 2.17611C66.2877 2.14769 66.3511 2.10557 66.4045 2.05224C66.4578 1.99891 66.4999 1.93544 66.5283 1.86558C66.5567 1.79571 66.5708 1.72087 66.5699 1.64545V0.858589C66.5598 0.710122 66.4963 0.570328 66.3912 0.465106C66.286 0.359885 66.1462 0.296369 65.9978 0.286326Z" fill="#005DAA"/>
<path d="M62.8518 5.22167C63.7098 5.22167 64.3534 5.5078 64.5679 6.08007C64.7109 6.3662 64.9254 6.3662 65.2114 6.3662H66.3555C66.4123 6.36819 66.469 6.35846 66.522 6.3376C66.5749 6.31674 66.623 6.28519 66.6633 6.24493C66.7035 6.20467 66.7351 6.15656 66.7559 6.10358C66.7768 6.0506 66.7865 5.9939 66.7845 5.937C66.7845 4.57788 65.1399 3.36182 62.8518 3.36182C60.5637 3.36182 58.9191 4.50634 58.9191 6.29466C58.9191 7.65379 59.9916 8.51218 61.3502 8.86985C61.9222 9.01291 62.9948 9.29904 63.4953 9.44211C63.9958 9.58518 64.4964 9.72824 64.4964 10.229C64.4964 10.9443 63.7098 11.2304 62.8518 11.2304C62.4877 11.2513 62.1245 11.1765 61.7983 11.0134C61.4722 10.8502 61.1944 10.6044 60.9927 10.3005C60.8497 9.94284 60.6352 9.94284 60.2777 9.94284H59.0621C59.0052 9.94084 58.9485 9.95058 58.8956 9.97144C58.8426 9.9923 58.7945 10.0238 58.7543 10.0641C58.714 10.1044 58.6825 10.1525 58.6617 10.2055C58.6408 10.2584 58.6311 10.3151 58.6331 10.372V10.5151C58.6331 11.8027 60.4207 13.2334 62.8518 13.2334C64.5679 13.2334 66.999 12.518 66.999 10.229C66.999 8.86985 66.141 7.93992 64.6394 7.58226L62.4228 7.00999C61.9222 6.86693 61.4217 6.72386 61.4217 6.22313C61.4217 5.43627 62.0652 5.22167 62.8518 5.22167Z" fill="#005DAA"/>
<path d="M85.3039 12.1607C85.3075 11.9342 85.3991 11.718 85.5592 11.5578C85.7194 11.3976 85.9355 11.306 86.1619 11.3023C86.2756 11.2983 86.389 11.3177 86.4949 11.3595C86.6008 11.4012 86.697 11.4643 86.7775 11.5448C86.858 11.6253 86.9211 11.7215 86.9628 11.8275C87.0045 11.9335 87.0239 12.0469 87.0199 12.1607C87.0162 12.3872 86.9247 12.6034 86.7645 12.7636C86.6044 12.9238 86.3883 13.0154 86.1619 13.0191C86.0481 13.0231 85.9348 13.0036 85.8289 12.9619C85.723 12.9201 85.6268 12.8571 85.5463 12.7765C85.4658 12.696 85.4027 12.5998 85.361 12.4938C85.3193 12.3879 85.2999 12.2745 85.3039 12.1607ZM86.1619 12.876C86.3515 12.876 86.5334 12.8006 86.6675 12.6665C86.8016 12.5323 86.8769 12.3504 86.8769 12.1607C86.8832 12.0651 86.8691 11.9693 86.8354 11.8796C86.8017 11.79 86.7492 11.7085 86.6815 11.6408C86.6138 11.5731 86.5324 11.5206 86.4428 11.4869C86.3532 11.4532 86.2574 11.439 86.1619 11.4453C85.9723 11.4453 85.7904 11.5207 85.6563 11.6548C85.5222 11.789 85.4469 11.9709 85.4469 12.1607C85.4405 12.2562 85.4547 12.3521 85.4884 12.4417C85.5221 12.5314 85.5746 12.6128 85.6423 12.6805C85.71 12.7482 85.7913 12.8007 85.881 12.8344C85.9706 12.8681 86.0664 12.8823 86.1619 12.876ZM85.9474 12.6614H85.8044V11.6599H86.1619C86.3764 11.6599 86.5194 11.7315 86.5194 11.9461C86.5227 11.9845 86.5175 12.0231 86.5043 12.0593C86.4911 12.0955 86.4701 12.1284 86.4429 12.1556C86.4156 12.1829 86.3828 12.2038 86.3466 12.2171C86.3104 12.2303 86.2718 12.2355 86.2334 12.2322L86.5194 12.6614H86.3764L86.0904 12.2322H85.9474V12.6614ZM86.1619 12.0891C86.3049 12.0891 86.3764 12.0891 86.3764 11.9461C86.3764 11.803 86.2334 11.803 86.1619 11.803H85.9474V12.0891H86.1619Z" fill="#005DAA"/>
<path d="M32.3911 7.86865C14.5867 9.29931 2.28808 11.946 0.786499 15.0219C7.79386 13.5913 18.9484 12.3752 32.3911 11.6599V7.86865Z" fill="#FEC34E"/>
<path d="M91.0243 11.445C106.112 12.1604 118.124 13.3764 125.775 15.0217C124.202 11.7312 110.688 8.9414 91.0243 7.65381V11.445Z" fill="#FEC34E"/>
<path d="M128.492 51.2175C128.574 51.5578 128.753 51.8671 129.007 52.1082C129.26 52.3493 129.578 52.512 129.922 52.5766C130.709 52.5766 130.995 52.219 131.066 51.5036C131.138 50.7883 131.495 50.2876 132.067 50.2876C132.266 50.2923 132.462 50.3412 132.639 50.4307C132.831 50.7026 132.931 51.0282 132.925 51.3606C132.925 51.9328 132.782 52.5051 131.71 52.7912C131.436 52.8207 131.179 52.9432 130.984 53.1384C130.789 53.3336 130.667 53.5897 130.637 53.8642C130.645 54.0553 130.702 54.2411 130.802 54.404C130.902 54.5668 131.042 54.7012 131.209 54.7942C131.463 55.0268 131.795 55.1546 132.139 55.1518C132.455 55.1468 132.769 55.1952 133.068 55.2949C133.324 55.6195 133.451 56.0269 133.426 56.4394C133.434 56.6543 133.396 56.8685 133.315 57.0677C133.234 57.267 133.112 57.4468 132.957 57.5955C132.801 57.7441 132.616 57.8582 132.414 57.9302C132.211 58.0022 131.996 58.0304 131.781 58.0131C131.537 58.0066 131.295 57.9582 131.066 57.8701C130.859 57.6359 130.69 57.3704 130.566 57.0832C130.455 56.7321 130.228 56.4293 129.922 56.2248C129.655 56.0237 129.326 55.9225 128.993 55.9387C128.7 55.9694 128.431 56.1142 128.243 56.3417C128.056 56.5692 127.966 56.8612 127.992 57.1547C128.043 57.6386 128.198 58.1058 128.444 58.5253C128.691 58.9447 129.024 59.3066 129.422 59.5869C130.148 60.1751 131.062 60.4801 131.996 60.4452C132.519 60.4804 133.043 60.4058 133.535 60.226C134.027 60.0463 134.477 59.7655 134.854 59.4016C135.231 59.0378 135.528 58.599 135.725 58.1134C135.923 57.6279 136.016 57.1064 136 56.5825C136.015 56.108 135.912 55.6373 135.7 55.2127C135.487 54.7882 135.173 54.4231 134.785 54.1504C134.63 54.0144 134.463 53.8946 134.284 53.7927C134.639 53.5262 134.928 53.1806 135.126 52.7833C135.325 52.386 135.428 51.9479 135.428 51.5036C135.427 50.941 135.29 50.3869 135.028 49.8887C134.767 49.3905 134.389 48.9629 133.926 48.6423C133.328 48.1332 132.567 47.8542 131.781 47.8555C130.908 47.8917 130.082 48.2597 129.471 48.8844C128.86 49.5092 128.51 50.3436 128.492 51.2175Z" fill="#FEC34E"/>
<path d="M128.278 51.1462C128.36 51.4865 128.538 51.7958 128.792 52.0369C129.046 52.2781 129.364 52.4407 129.708 52.5053C130.494 52.5053 130.78 52.1477 130.852 51.4324C130.923 50.717 131.281 50.2163 131.853 50.2163C132.052 50.221 132.247 50.2699 132.425 50.3594C132.616 50.6313 132.716 50.9569 132.711 51.2893C132.711 51.8616 132.568 52.4338 131.495 52.7199C131.221 52.7494 130.965 52.8719 130.77 53.0671C130.575 53.2623 130.452 53.5185 130.423 53.7929C130.43 53.984 130.487 54.1698 130.587 54.3327C130.687 54.4955 130.828 54.6299 130.995 54.7229C131.248 54.9555 131.58 55.0833 131.924 55.0805C132.24 55.0755 132.554 55.1239 132.854 55.2236C133.11 55.5482 133.237 55.9556 133.211 56.3681C133.219 56.583 133.181 56.7972 133.1 56.9964C133.02 57.1957 132.897 57.3755 132.742 57.5242C132.587 57.6728 132.402 57.7869 132.199 57.8589C131.997 57.9309 131.781 57.9591 131.567 57.9418C131.322 57.9353 131.08 57.8869 130.852 57.7988C130.644 57.5647 130.475 57.2991 130.351 57.0119C130.241 56.6608 130.014 56.358 129.708 56.1535C129.441 55.9524 129.112 55.8512 128.778 55.8674C128.485 55.8982 128.216 56.0429 128.029 56.2704C127.841 56.4979 127.751 56.7899 127.777 57.0835C127.829 57.5673 127.983 58.0345 128.23 58.454C128.476 58.8734 128.81 59.2353 129.207 59.5156C129.933 60.1038 130.848 60.4088 131.781 60.374C132.304 60.4092 132.828 60.3345 133.321 60.1547C133.813 59.975 134.262 59.6942 134.639 59.3303C135.016 58.9665 135.313 58.5277 135.511 58.0421C135.708 57.5566 135.802 57.0351 135.785 56.5112C135.8 56.0367 135.697 55.566 135.485 55.1414C135.273 54.7169 134.958 54.3518 134.57 54.0791C134.416 53.9431 134.248 53.8233 134.069 53.7214C134.425 53.4549 134.713 53.1093 134.912 52.712C135.11 52.3147 135.213 51.8766 135.213 51.4324C135.212 50.8697 135.075 50.3156 134.814 49.8174C134.552 49.3192 134.174 48.8916 133.712 48.571C133.113 48.0619 132.353 47.7829 131.567 47.7842C130.69 47.8083 129.856 48.1725 129.243 48.7998C128.629 49.4271 128.283 50.2685 128.278 51.1462Z" fill="white"/>
<path d="M128.421 51.146C128.422 51.411 128.528 51.6646 128.716 51.852C128.903 52.0394 129.157 52.1455 129.422 52.1474C130.208 52.1474 130.423 51.7897 130.423 51.2175C130.494 50.4306 130.923 49.9299 131.567 49.9299C131.74 49.9251 131.913 49.9582 132.072 50.0269C132.231 50.0955 132.374 50.1981 132.49 50.3275C132.605 50.4569 132.691 50.6099 132.742 50.7759C132.792 50.942 132.806 51.1171 132.782 51.289C132.804 51.4736 132.787 51.6608 132.733 51.8387C132.679 52.0166 132.589 52.1813 132.468 52.3224C132.347 52.4636 132.198 52.5781 132.031 52.6588C131.863 52.7395 131.681 52.7846 131.495 52.7912C130.995 52.9343 130.566 53.2204 130.566 53.7211C130.589 53.9849 130.714 54.2292 130.914 54.4026C131.114 54.576 131.374 54.6651 131.638 54.6511C132.639 54.6511 133.354 54.8657 133.354 56.3679C133.363 56.5957 133.325 56.823 133.242 57.0354C133.159 57.2478 133.033 57.4407 132.872 57.602C132.711 57.7632 132.518 57.8894 132.305 57.9724C132.093 58.0555 131.866 58.0937 131.638 58.0846C131.284 58.094 130.938 57.9766 130.663 57.7537C130.388 57.5308 130.201 57.2169 130.137 56.8686C130.086 56.6035 129.944 56.3649 129.734 56.1947C129.525 56.0246 129.262 55.9339 128.993 55.9387C128.421 55.9387 128.135 56.5824 128.135 57.0116C128.135 57.7985 128.993 59.9445 131.781 59.9445C132.286 59.9855 132.795 59.9186 133.272 59.7482C133.75 59.5777 134.185 59.3077 134.55 58.9559C134.916 58.6041 135.202 58.1787 135.39 57.7078C135.578 57.237 135.664 56.7314 135.642 56.2248C135.658 55.6322 135.477 55.0511 135.128 54.5723C134.779 54.0935 134.281 53.7438 133.712 53.5781C134.115 53.3441 134.451 53.0109 134.689 52.6103C134.926 52.2096 135.058 51.7548 135.07 51.289C135.087 50.8585 135.016 50.4291 134.861 50.0271C134.706 49.6251 134.471 49.259 134.169 48.951C133.868 48.643 133.508 48.3997 133.109 48.2359C132.711 48.0722 132.283 47.9914 131.853 47.9985C131.419 47.9724 130.985 48.0339 130.575 48.1792C130.166 48.3246 129.79 48.5508 129.47 48.8444C129.15 49.1381 128.892 49.4931 128.711 49.8885C128.531 50.2839 128.432 50.7115 128.421 51.146Z" fill="url(#paint2_linear)"/>
<path d="M130.065 56.8687C130.011 56.6114 129.865 56.3826 129.654 56.2248C129.444 56.0669 129.183 55.9908 128.921 56.0103C128.821 56.0074 128.722 56.0321 128.635 56.0819C128.829 56.1459 129.002 56.2585 129.14 56.4087C129.278 56.559 129.375 56.7419 129.422 56.9403C129.507 57.2783 129.699 57.5796 129.97 57.7989C130.24 58.0182 130.575 58.1436 130.923 58.1563H131.209C130.924 58.059 130.668 57.8893 130.467 57.6636C130.267 57.4379 130.128 57.164 130.065 56.8687Z" fill="#005FAE"/>
<path d="M129.851 51.2173C129.779 51.718 129.636 52.0757 129.136 52.1472H129.422C130.208 52.1472 130.423 51.7895 130.423 51.2173C130.422 50.932 130.512 50.6538 130.679 50.4225C130.846 50.1913 131.081 50.0187 131.352 49.9297H131.066C130.351 49.9297 129.922 50.4304 129.851 51.2173Z" fill="#005FAE"/>
<path d="M133.569 53.6498C133.972 53.4158 134.308 53.0826 134.546 52.682C134.783 52.2814 134.915 51.8265 134.927 51.3608C134.944 50.9303 134.873 50.5009 134.718 50.0989C134.563 49.6969 134.328 49.3307 134.026 49.0227C133.725 48.7148 133.364 48.4715 132.966 48.3077C132.568 48.1439 132.14 48.0631 131.71 48.0703H131.424C132.241 48.1377 133.001 48.5169 133.547 49.1294C134.093 49.7419 134.382 50.5408 134.355 51.3608C134.351 51.8284 134.223 52.2865 133.985 52.6886C133.746 53.0907 133.405 53.4223 132.997 53.6498C133.566 53.8156 134.064 54.1652 134.413 54.644C134.762 55.1229 134.943 55.704 134.927 56.2965C134.954 56.7799 134.881 57.2635 134.712 57.7174C134.544 58.1712 134.284 58.5855 133.949 58.9344C133.613 59.2833 133.21 59.5595 132.763 59.7456C132.316 59.9317 131.836 60.0238 131.352 60.0162H131.638C132.143 60.0573 132.652 59.9904 133.129 59.8199C133.607 59.6495 134.042 59.3794 134.407 59.0277C134.773 58.6759 135.059 58.2505 135.247 57.7796C135.435 57.3087 135.521 56.8032 135.499 56.2965C135.539 55.6989 135.367 55.1064 135.014 54.6226C134.661 54.1388 134.15 53.7945 133.569 53.6498Z" fill="#005FAE"/>
<path d="M133.712 56.5823C133.712 55.5808 133.426 55.1516 132.925 54.937C133.135 55.1228 133.296 55.3564 133.395 55.618C133.495 55.8795 133.53 56.1612 133.497 56.4392C133.503 56.691 133.456 56.9413 133.36 57.1741C133.264 57.4069 133.121 57.6174 132.939 57.7921C132.758 57.9668 132.542 58.1021 132.306 58.1893C132.07 58.2766 131.818 58.3139 131.567 58.2991C131.322 58.2925 131.08 58.2442 130.852 58.156C131.119 58.3571 131.448 58.4583 131.781 58.4421C132.033 58.457 132.284 58.4196 132.521 58.3324C132.757 58.2451 132.972 58.1099 133.154 57.9351C133.335 57.7604 133.478 57.55 133.574 57.3172C133.671 57.0843 133.717 56.8341 133.712 56.5823Z" fill="url(#paint3_radial)"/>
<path d="M131.71 48.1417C131.304 48.1234 130.898 48.1875 130.518 48.3301C130.137 48.4728 129.789 48.6911 129.495 48.9718C129.201 49.2525 128.967 49.5899 128.807 49.9636C128.647 50.3373 128.564 50.7395 128.564 51.1461C128.569 51.3195 128.627 51.4873 128.729 51.6276C128.831 51.7679 128.973 51.8743 129.136 51.933C129.029 51.8462 128.941 51.7375 128.879 51.6141C128.818 51.4907 128.783 51.3555 128.778 51.2177C128.799 50.69 128.952 50.1761 129.225 49.7239C129.497 49.2717 129.88 48.896 130.337 48.6317C130.794 48.3674 131.31 48.2232 131.838 48.2126C132.365 48.202 132.887 48.3253 133.354 48.5709C132.847 48.3025 132.284 48.1556 131.71 48.1417Z" fill="url(#paint4_radial)"/>
<path d="M132.496 50.0015C132.675 50.1618 132.813 50.3619 132.9 50.5856C132.987 50.8092 133.02 51.0502 132.997 51.2891C132.997 51.9328 132.854 52.6482 131.567 53.0058C131.281 53.0774 130.78 53.292 130.78 53.7927C130.787 53.9574 130.846 54.1156 130.949 54.2443C131.052 54.373 131.193 54.4654 131.352 54.508C131.242 54.4405 131.152 54.3457 131.089 54.233C131.027 54.1202 130.994 53.9932 130.995 53.8642C130.995 53.292 131.495 53.1489 131.781 53.0774C131.989 53.0613 132.191 53.0038 132.376 52.9082C132.561 52.8126 132.725 52.681 132.859 52.5209C132.992 52.3609 133.092 52.1758 133.152 51.9765C133.213 51.7772 133.233 51.5678 133.211 51.3606C133.246 51.088 133.196 50.8113 133.068 50.5681C132.94 50.325 132.741 50.1271 132.496 50.0015Z" fill="url(#paint5_radial)"/>
<path d="M128.421 57.2265C128.405 56.9995 128.478 56.7752 128.625 56.6015C128.772 56.4278 128.981 56.3184 129.207 56.2966C129.331 56.2779 129.457 56.3032 129.565 56.3681C129.477 56.2912 129.375 56.2325 129.265 56.1957C129.154 56.1588 129.037 56.1445 128.921 56.1535C128.421 56.1535 128.135 56.7258 128.135 57.0834C128.176 57.5872 128.35 58.0709 128.639 58.4856C128.928 58.9002 129.321 59.2309 129.779 59.444C129.398 59.203 129.078 58.8777 128.842 58.4933C128.607 58.1089 128.462 57.6755 128.421 57.2265Z" fill="url(#paint6_radial)"/>
</g>
<defs>
<linearGradient id="paint0_linear" x1="87.8636" y1="38.2986" x2="126.241" y2="46.161" gradientUnits="userSpaceOnUse">
<stop stop-color="#00507D"/>
<stop offset="0.67" stop-color="#00A5E3"/>
<stop offset="1" stop-color="#006CA1"/>
</linearGradient>
<linearGradient id="paint1_linear" x1="53.4937" y1="25167.4" x2="2482" y2="25928" gradientUnits="userSpaceOnUse">
<stop stop-color="#00507D"/>
<stop offset="0.67" stop-color="#00A5E3"/>
<stop offset="1" stop-color="#006CA1"/>
</linearGradient>
<linearGradient id="paint2_linear" x1="128.042" y1="53.9715" x2="135.535" y2="53.9715" gradientUnits="userSpaceOnUse">
<stop stop-color="#005FAE"/>
<stop offset="0.53" stop-color="#005FAE"/>
<stop offset="1" stop-color="#7D98CE"/>
</linearGradient>
<radialGradient id="paint3_radial" cx="0" cy="0" r="1" gradientUnits="userSpaceOnUse" gradientTransform="translate(135.232 57.1059) scale(1.60454 1.6052)">
<stop stop-color="#D4DAEF"/>
<stop offset="0.21" stop-color="#ADBCE0"/>
<stop offset="0.67" stop-color="#557FC0"/>
<stop offset="1" stop-color="#005FAE"/>
</radialGradient>
<radialGradient id="paint4_radial" cx="0" cy="0" r="1" gradientUnits="userSpaceOnUse" gradientTransform="translate(131.552 50.1658) scale(2.19044 2.19134)">
<stop stop-color="#D4DAEF"/>
<stop offset="0.12" stop-color="#C2CCE8"/>
<stop offset="0.35" stop-color="#96AAD8"/>
<stop offset="0.68" stop-color="#5680C0"/>
<stop offset="1" stop-color="#005FAE"/>
</radialGradient>
<radialGradient id="paint5_radial" cx="0" cy="0" r="1" gradientUnits="userSpaceOnUse" gradientTransform="translate(131.799 52.2369) scale(1.82334 1.82409)">
<stop stop-color="#D4DAEF"/>
<stop offset="0.26" stop-color="#9BAEDA"/>
<stop offset="0.77" stop-color="#3371B8"/>
<stop offset="1" stop-color="#005FAE"/>
</radialGradient>
<radialGradient id="paint6_radial" cx="0" cy="0" r="1" gradientUnits="userSpaceOnUse" gradientTransform="translate(-5200.33 -2506.1) scale(3.05302 6.11338)">
<stop stop-color="#D4DAEF"/>
<stop offset="0.26" stop-color="#9BAEDA"/>
<stop offset="0.77" stop-color="#3371B8"/>
<stop offset="1" stop-color="#005FAE"/>
</radialGradient>
<clipPath id="clip0">
<rect width="136" height="98" fill="white"/>
</clipPath>
</defs>
</svg>
