<svg width="30" height="30" viewBox="0 0 30 30" fill="none" xmlns="http://www.w3.org/2000/svg">
<circle cx="15" cy="15" r="15" fill="#597DA3"/>
<path fill-rule="evenodd" clip-rule="evenodd" d="M20.1287 16.9026C20.6923 17.4137 21.229 17.9538 21.7367 18.5206C21.9581 18.7747 22.1509 19.0523 22.3117 19.3486C22.3692 19.4291 22.4057 19.5227 22.4178 19.6209C22.4299 19.719 22.4173 19.8187 22.3812 19.9108C22.345 20.0029 22.2864 20.0845 22.2107 20.1482C22.135 20.2119 22.0446 20.2557 21.9477 20.2756H19.5577C19.2732 20.2967 18.9877 20.2517 18.7235 20.1442C18.4593 20.0366 18.2235 19.8694 18.0347 19.6556C17.7047 19.3186 17.3977 18.9556 17.0787 18.6116C16.9525 18.4659 16.8079 18.3372 16.6487 18.2286C16.5884 18.1746 16.5159 18.1361 16.4374 18.1163C16.3589 18.0966 16.2768 18.0962 16.1981 18.1151C16.1194 18.1341 16.0465 18.1719 15.9856 18.2253C15.9248 18.2787 15.8778 18.346 15.8487 18.4216C15.6794 18.769 15.5931 19.1511 15.5967 19.5376C15.6161 19.6408 15.6096 19.7473 15.5777 19.8474C15.5458 19.9475 15.4896 20.0381 15.4141 20.1112C15.3386 20.1842 15.2461 20.2373 15.145 20.2659C15.0439 20.2944 14.9373 20.2974 14.8347 20.2746C13.6471 20.3678 12.4582 20.1123 11.4137 19.5396C10.5041 18.9908 9.72041 18.2565 9.11371 17.3846C7.91347 15.6979 6.89734 13.8876 6.08271 11.9846C5.89171 11.5596 6.03171 11.3316 6.50071 11.3226C7.28171 11.3076 8.06171 11.3096 8.84171 11.3226C8.98759 11.3242 9.12916 11.3722 9.246 11.4595C9.36284 11.5469 9.44888 11.6691 9.49171 11.8086C9.90566 12.8464 10.4382 13.833 11.0787 14.7486C11.2379 15.0022 11.4411 15.2254 11.6787 15.4076C11.7248 15.4554 11.7831 15.4897 11.8473 15.5068C11.9115 15.5238 11.9792 15.523 12.043 15.5043C12.1067 15.4857 12.1642 15.45 12.2091 15.401C12.254 15.352 12.2846 15.2917 12.2977 15.2266C12.3758 15.0295 12.422 14.8212 12.4347 14.6096C12.5069 13.8903 12.4945 13.165 12.3977 12.4486C12.3828 12.2442 12.2985 12.051 12.1589 11.9009C12.0192 11.7509 11.8325 11.6531 11.6297 11.6236C11.4017 11.5806 11.4347 11.4956 11.5457 11.3656C11.6279 11.2484 11.7382 11.1536 11.8664 11.0899C11.9946 11.0261 12.1366 10.9954 12.2797 11.0006H14.9797C15.0637 11.0085 15.1453 11.0328 15.2199 11.0723C15.2945 11.1118 15.3605 11.1655 15.4143 11.2306C15.4681 11.2956 15.5085 11.3705 15.5333 11.4512C15.5581 11.5318 15.5667 11.6166 15.5587 11.7006V14.7006C15.5514 14.8503 15.5825 14.9994 15.6492 15.1337C15.7159 15.268 15.8159 15.3829 15.9397 15.4676C16.0457 15.4835 16.1541 15.4668 16.2504 15.4196C16.3466 15.3724 16.4263 15.2971 16.4787 15.2036C17.1 14.5046 17.613 13.7166 18.0007 12.8656C18.1827 12.4956 18.3407 12.1116 18.4937 11.7276C18.5309 11.5976 18.6123 11.4847 18.7238 11.4084C18.8354 11.3321 18.9701 11.2971 19.1047 11.3096H21.7047C21.782 11.3077 21.8592 11.3124 21.9357 11.3236C22.0198 11.3159 22.1043 11.3319 22.1797 11.3698C22.2552 11.4077 22.3185 11.4659 22.3625 11.5379C22.4066 11.61 22.4295 11.6929 22.4289 11.7773C22.4282 11.8617 22.4039 11.9442 22.3587 12.0156C22.1121 12.6646 21.7626 13.2696 21.3237 13.8076C20.8897 14.4076 20.4237 14.9876 19.9957 15.5906C19.9002 15.6765 19.8263 15.7837 19.78 15.9036C19.7337 16.0234 19.7164 16.1525 19.7293 16.2803C19.7423 16.4081 19.7852 16.5311 19.8546 16.6392C19.924 16.7473 20.0179 16.8375 20.1287 16.9026Z" fill="white"/>
</svg>
