<svg width="30" height="30" viewBox="0 0 30 30" fill="none" xmlns="http://www.w3.org/2000/svg">
<circle cx="15" cy="15" r="15" fill="#F48420"/>
<path fill-rule="evenodd" clip-rule="evenodd" d="M14.9113 14.266C15.7288 14.266 16.5279 14.0236 17.2076 13.5694C17.8872 13.1152 18.417 12.4697 18.7298 11.7144C19.0426 10.9591 19.1244 10.1281 18.9648 9.32633C18.8053 8.52458 18.4115 7.78815 17.8334 7.21018C17.2553 6.63221 16.5188 6.23865 15.717 6.07929C14.9152 5.91993 14.0841 6.00193 13.329 6.3149C12.5738 6.62787 11.9284 7.15776 11.4743 7.83756C11.0203 8.51736 10.7781 9.31653 10.7783 10.134C10.7783 10.6767 10.8852 11.2141 11.0929 11.7155C11.3006 12.2169 11.6051 12.6724 11.9889 13.0561C12.3727 13.4398 12.8283 13.7442 13.3298 13.9518C13.8312 14.1594 14.3686 14.2661 14.9113 14.266ZM14.9113 8.101C15.3133 8.1012 15.7063 8.2206 16.0405 8.44411C16.3747 8.66762 16.6351 8.9852 16.7888 9.3567C16.9425 9.7282 16.9827 10.1369 16.9041 10.5312C16.8256 10.9255 16.6318 11.2877 16.3475 11.5719C16.0631 11.8561 15.7009 12.0497 15.3066 12.128C14.9122 12.2064 14.5035 12.1661 14.1321 12.0122C13.7606 11.8583 13.4432 11.5977 13.2199 11.2634C12.9965 10.9291 12.8773 10.5361 12.8773 10.134C12.8773 9.86694 12.9299 9.6025 13.0321 9.35578C13.1344 9.10906 13.2842 8.88489 13.4731 8.6961C13.662 8.50731 13.8862 8.35758 14.133 8.25547C14.3798 8.15336 14.6442 8.10087 14.9113 8.101ZM19.6743 14.771C19.5943 14.6175 19.4775 14.4863 19.3344 14.389C19.1913 14.2916 19.0263 14.2313 18.8542 14.2132C18.682 14.1952 18.5081 14.2201 18.348 14.2857C18.1878 14.3512 18.0464 14.4555 17.9363 14.589C17.0399 15.1851 15.9873 15.5031 14.9108 15.5031C13.8343 15.5031 12.7817 15.1851 11.8853 14.589C11.7752 14.4555 11.6338 14.3512 11.4736 14.2857C11.3134 14.2201 11.1395 14.1952 10.9674 14.2132C10.7953 14.2313 10.6303 14.2916 10.4872 14.389C10.3441 14.4863 10.2273 14.6175 10.1473 14.771C9.74029 15.588 10.2003 15.983 11.2373 16.648C12.1254 17.1436 13.1118 17.4375 14.1263 17.509L13.4703 18.165L11.0353 20.6C10.9471 20.6879 10.8772 20.7923 10.8294 20.9073C10.7817 21.0223 10.7571 21.1455 10.7571 21.27C10.7571 21.3945 10.7817 21.5177 10.8294 21.6327C10.8772 21.7477 10.9471 21.8521 11.0353 21.94L11.1503 22.05C11.3281 22.2276 11.569 22.3273 11.8203 22.3273C12.0715 22.3273 12.3125 22.2276 12.4903 22.05L14.9263 19.615L17.3613 22.05C17.5391 22.2276 17.78 22.3273 18.0313 22.3273C18.2825 22.3273 18.5235 22.2276 18.7013 22.05L18.8133 21.938C18.9909 21.7602 19.0906 21.5193 19.0906 21.268C19.0906 21.0167 18.9909 20.7758 18.8133 20.598L16.3773 18.163L15.7193 17.505C16.7269 17.4319 17.7063 17.1387 18.5883 16.646C19.6213 15.983 20.0813 15.588 19.6743 14.771Z" fill="white"/>
</svg>
